Coordinates
version=1
nRows=38
nColumns=12
inDegrees=yes

Units are S.I. units (second, meters, Newtons, ...)
Angles are in degrees

endheader
time	SC_y	SC_z	SC_x	AC_y	AC_z	AC_x	GH_y	GH_z	GH_yy	EL_x	PS_y
       0.0              -28.83           1.16          70.01          34.76         -10.16         -18.25          108.1          73.41         -6.521          37.39          41.23
   0.02629              -28.84          1.166          70.01          34.77         -10.16         -18.24          108.1           73.4          -6.51          37.41          41.24
   0.05258              -28.84          1.171          70.01          34.77         -10.15         -18.24          108.0           73.4         -6.499          37.42          41.24
   0.07887              -28.84          1.177          70.01          34.78         -10.15         -18.23          108.0           73.4         -6.487          37.43          41.25
    0.1052              -28.84          1.183           70.0          34.78         -10.15         -18.22          108.0           73.4         -6.475          37.45          41.26
    0.1315              -28.85           1.19           70.0          34.79         -10.15         -18.22          108.0           73.4         -6.461          37.46          41.27
    0.1577              -28.85          1.197          69.99          34.79         -10.14         -18.21          108.0           73.4         -6.447          37.48          41.28
     0.184              -28.85          1.205          69.99           34.8         -10.14          -18.2          107.9          73.39         -6.432           37.5          41.29
    0.2103              -28.86          1.213          69.99          34.81         -10.14         -18.19          107.9          73.39         -6.415          37.52           41.3
    0.2366              -28.86          1.222          69.98          34.81         -10.13         -18.18          107.9          73.39         -6.398          37.54          41.31
    0.2629              -28.87          1.231          69.98          34.82         -10.13         -18.17          107.8          73.39         -6.379          37.56          41.33
    0.2892              -28.87          1.242          69.97          34.83         -10.13         -18.16          107.8          73.38         -6.358          37.58          41.34
    0.3155              -28.87          1.253          69.96          34.84         -10.12         -18.15          107.8          73.38         -6.336          37.61          41.36
    0.3418              -28.88          1.265          69.96          34.85         -10.12         -18.14          107.7          73.38         -6.313          37.64          41.37
    0.3681              -28.89          1.277          69.95          34.86         -10.11         -18.13          107.7          73.37         -6.287          37.67          41.39
    0.3944              -28.89          1.291          69.94          34.87         -10.11         -18.11          107.7          73.37         -6.259           37.7          41.41
    0.4207               -28.9          1.307          69.93          34.88          -10.1          -18.1          107.6          73.36         -6.229          37.73          41.43
    0.4469              -28.91          1.323          69.93           34.9         -10.09         -18.08          107.6          73.36         -6.196          37.77          41.45
    0.4732              -28.91          1.341          69.92          34.91         -10.09         -18.06          107.5          73.36          -6.16          37.81          41.48
    0.4995              -28.92          1.361          69.91          34.93         -10.08         -18.04          107.4          73.35         -6.121          37.86           41.5
    0.5258              -28.93          1.382          69.89          34.94         -10.07         -18.02          107.4          73.34         -6.077          37.91          41.53
    0.5521              -28.94          1.406          69.88          34.96         -10.06          -18.0          107.3          73.34          -6.03          37.97          41.57
    0.5784              -28.95          1.433          69.87          34.98         -10.05         -17.97          107.2          73.33         -5.977          38.03           41.6
    0.6047              -28.97          1.462          69.85          35.01         -10.04         -17.94          107.1          73.32         -5.919           38.1          41.64
     0.631              -28.98          1.494          69.83          35.03         -10.03         -17.91          107.0          73.31         -5.854          38.17          41.69
    0.6573               -29.0          1.531          69.81          35.06         -10.01         -17.87          106.9           73.3         -5.782          38.26          41.74
    0.6836              -29.01          1.571          69.79           35.1         -9.999         -17.83          106.8          73.29         -5.701          38.35          41.79
    0.7099              -29.03          1.617          69.77          35.13         -9.981         -17.78          106.6          73.28          -5.61          38.46          41.86
    0.7361              -29.06          1.668          69.74          35.18         -9.961         -17.73          106.5          73.26         -5.507          38.58          41.93
    0.7624              -29.08          1.727          69.71          35.22         -9.939         -17.67          106.3          73.25          -5.39          38.71          42.01
    0.7887              -29.11          1.794          69.67          35.28         -9.913          -17.6          106.1          73.23         -5.257          38.87           42.1
     0.815              -29.14           1.87          69.63          35.34         -9.883         -17.52          105.8          73.21         -5.104          39.05          42.21
    0.8413              -29.18          1.959          69.58          35.41         -9.849         -17.43          105.6          73.18         -4.927          39.25          42.33
    0.8676              -29.23          2.062          69.52           35.5         -9.809         -17.33          105.2          73.15         -4.722          39.49          42.47
    0.8939              -29.28          2.182          69.46          35.59         -9.762          -17.2          104.8          73.12         -4.482          39.77          42.63
    0.9202              -29.34          2.324          69.38          35.71         -9.707         -17.06          104.4          73.08         -4.199           40.1          42.83
    0.9465              -29.41          2.493          69.29          35.85         -9.642         -16.88          103.9          73.03         -3.863           40.5          43.06
    0.9728               -29.5          2.695          69.18          36.01         -9.564         -16.68          103.2          72.97         -3.459          40.97          43.34
